<svg xmlns="http://www.w3.org/2000/svg" viewBox="0 0 512 512" width="100%" height="100%">
  <rect width="512" height="512" fill="#0F172A"/>

  <path d="M 200 512 L 512 200 L 512 512 Z" fill="url(#brandGradient)" opacity="0.15" />

  <defs>
    <linearGradient id="brandGradient" x1="0%" y1="0%" x2="100%" y2="100%">
      <stop offset="0%" stop-color="#38BDF8" />
      <stop offset="100%" stop-color="#818CF8" />
    </linearGradient>
  </defs>

  <g fill="none" stroke="#F8FAFC" stroke-width="14" stroke-linecap="round" stroke-linejoin="round">
    <path d="M 160 140 L 256 100 L 352 140 V 260 C 352 340 256 400 256 400 C 256 400 160 340 160 260 Z" />

    <circle cx="256" cy="210" r="24" />
    <path d="M 244 232 L 236 300 L 276 300 L 268 232" />

    <path d="M 110 200 L 130 200" opacity="0.4" stroke-width="10" />
    <path d="M 382 200 L 402 200" opacity="0.4" stroke-width="10" />
    <path d="M 120 280 L 135 280" opacity="0.4" stroke-width="10" />
    <path d="M 377 280 L 392 280" opacity="0.4" stroke-width="10" />
  </g>
</svg>
